inDegrees=no
num_controls=7
num_derivatives=13
num_iterations=80
num_multipliers=7
num_parameters=0
num_slacks=7
num_states=26
objective=0.429309
objective_accelerations=0.002062
objective_balance=0.001637
objective_effort=0.003851
objective_height=0.400769
objective_ligament=0.020989
solver_duration=1066.020722
status=Solve_Succeeded
success=true
DataType=double
version=3
OpenSimVersion=4.5
endheader
time	/jointset/ground_pelvis/pelvis_tilt/value	/jointset/ground_pelvis/pelvis_tx/value	/jointset/ground_pelvis/pelvis_ty/value	/jointset/hip_l/hip_flexion_l/value	/jointset/hip_l/hip_adduction_l/value	/jointset/hip_l/hip_rotation_l/value	/jointset/back/lumbar_extension/value	/jointset/patellofemoral_l/patellar_flexion_l/value	/jointset/knee_l/knee_flexion_l/value	/jointset/knee_l/knee_adduction_l/value	/jointset/knee_l/knee_rotation_l/value	/jointset/ankle_l/ankle_angle_l/value	/jointset/subtalar_l/subtalar_angle_l/value	/jointset/ground_pelvis/pelvis_tilt/speed	/jointset/ground_pelvis/pelvis_tx/speed	/jointset/ground_pelvis/pelvis_ty/speed	/jointset/hip_l/hip_flexion_l/speed	/jointset/hip_l/hip_adduction_l/speed	/jointset/hip_l/hip_rotation_l/speed	/jointset/back/lumbar_extension/speed	/jointset/patellofemoral_l/patellar_flexion_l/speed	/jointset/knee_l/knee_flexion_l/speed	/jointset/knee_l/knee_adduction_l/speed	/jointset/knee_l/knee_rotation_l/speed	/jointset/ankle_l/ankle_angle_l/speed	/jointset/subtalar_l/subtalar_angle_l/speed	/forceset/tau_hip_flexion_l	/forceset/tau_hip_adduction_l	/forceset/tau_hip_rotation_l	/forceset/tau_knee_flexion_l	/forceset/tau_ankle_angle_l	/forceset/tau_subtalar_angle_l	/forceset/tau_lumbar_extension	lambda_cid13_p0	lambda_cid13_p1	lambda_cid13_p2	lambda_cid13_p3	lambda_cid13_p4	lambda_cid13_p5	lambda_cid14_p0	/jointset/ground_pelvis/pelvis_tilt/accel	/jointset/ground_pelvis/pelvis_tx/accel	/jointset/ground_pelvis/pelvis_ty/accel	/jointset/hip_l/hip_flexion_l/accel	/jointset/hip_l/hip_adduction_l/accel	/jointset/hip_l/hip_rotation_l/accel	/jointset/back/lumbar_extension/accel	/jointset/patellofemoral_l/patellar_flexion_l/accel	/jointset/knee_l/knee_flexion_l/accel	/jointset/knee_l/knee_adduction_l/accel	/jointset/knee_l/knee_rotation_l/accel	/jointset/ankle_l/ankle_angle_l/accel	/jointset/subtalar_l/subtalar_angle_l/accel	gamma_cid13_p0	gamma_cid13_p1	gamma_cid13_p2	gamma_cid13_p3	gamma_cid13_p4	gamma_cid13_p5	gamma_cid14_p0
1	-0.01677101683536919	0.1492814729652539	0.9076313348157858	0.1285993400470081	-0.2764846798482535	-0.311632556580202	-0.1524411635413253	0.1414920855530524	0.1414920855530497	0.004028208900248183	-0.1734335178648027	0.1285451042433766	0.1987012713858201	-0.1332416497067888	0.03669834251219445	-0.001745317317986942	0.02875236440448926	0.04457716487685173	-0.0575610239630495	0.1399744031890456	-0.1437831301265558	-0.1437831301265553	0.04569198437207791	0.002905930704662689	-0.02733206026140866	0.04130883985659051	0.02994164543399147	0.05570164897685512	-0.005791543004163935	-0.08047587237930635	0.003016504599410275	-0.05874036623406612	0.01508195586637508	-30.53432267253139	26.46973189056502	0.5106253760068481	3.911406312110472	-461.4583517227254	-26.76955330913122	-25.32942982815165	-0.02783941687934242	-0.08294396135849122	0.0004196019542370526	0.06575076828868412	0.01102845429510422	0.006589621676476852	0.08868188351270131	-0.1313291439196036	-0.1313291439196095	-0.04018589534736641	0.004152232775632586	-0.176712735696695	-0.06149380698120757	-5.374950245421922e-10	2.756048837444573e-09	-3.199614834499583e-09	8.156626061431881e-10	-2.378039653892161e-09	3.422167633706405e-09	4.648049935490087e-10
1.01	-0.01810480104902401	0.1496443134034796	0.9076138960233645	0.128890182289746	-0.2760383965356418	-0.312207812076372	-0.1510370423843406	0.1400478169004102	0.1400478169004025	0.004483079933212367	-0.1734042754163705	0.1282630128171399	0.1991112626493488	-0.1335122835774084	0.03587011332960655	-0.001742604080401994	0.02941508646107286	0.04467818478253709	-0.05748796163025119	0.140843601110709	-0.1450652092500467	-0.14506520925005	0.04528118924065362	0.002942653341204483	-0.02908296353613716	0.04068895585569888	0.02978624261460009	0.05580709997070113	-0.005836262564583127	-0.07971462157888806	0.002625110525220701	-0.05872831915404084	0.0150401508266777	-30.65486229948935	26.4472550986324	0.5580141264437581	3.884327088854005	-461.4400104331415	-26.76586161049228	-25.31394401130926	-0.02623886535220709	-0.08270701399968151	0.0001723159787745852	0.06638331888959674	0.009442038037944354	0.007982170077165774	0.08510468205657128	-0.1258387260672528	-0.1258387260677309	-0.04168124549105259	0.003445851754597376	-0.1737898638817401	-0.06230422588198793	-3.641872177290907e-10	2.464146990701822e-09	-3.294045110937632e-09	7.670429515264209e-10	-2.160061549002099e-09	3.278922777086797e-09	5.11024866506519e-10
1.02	-0.01944120430002733	0.1499988826264218	0.9075964793895833	0.1291876218319527	-0.2755911423681084	-0.3127822734230146	-0.1496244160610302	0.1385908891706314	0.1385908891706199	0.004933812030168208	-0.1733746630270417	0.1279635102100495	0.1995150413670208	-0.1337654571760003	0.03504409945548809	-0.001740885589954538	0.03007182429951734	0.04477133586152025	-0.05740219405762051	0.1416754364548967	-0.1463149455536743	-0.1463149455536813	0.04486419717118559	0.002979918884198391	-0.03081429643169867	0.04006633068525267	0.02963083979516098	0.05591255096457928	-0.005880982124984016	-0.07895337077847314	0.002233716451039733	-0.05871627207397551	0.01499834578691646	-30.77603668735065	26.42437431733847	0.6060556882902116	3.862799527823157	-461.432159973433	-26.76588433622215	-25.29809790260773	-0.02434736247376033	-0.08250089966464096	0.0002206525267427035	0.06455392466085962	0.009454688954665318	0.009130669642987515	0.08120936801761033	-0.1248605799469381	-0.1248605799469402	-0.0414252829561076	0.004260814066084115	-0.1727986598633373	-0.06204204089213485	-5.071577510297854e-10	2.778345944363127e-09	-3.173915650823438e-09	7.732918866199223e-10	-2.212281067720565e-09	3.387503737024987e-09	4.651722544825924e-10
1.03	-0.0207800318788251	0.1503451855639512	0.9075790768810571	0.1294916021480426	-0.2751429916604133	-0.3133558300364358	-0.1482036503704099	0.1371216286327472	0.1371216286327344	0.005380353560542677	-0.1733446940501206	0.1276467746036332	0.1999125784656538	-0.1339953053083018	0.03421512125180622	-0.001739627156090929	0.03072400981768088	0.04485779222955295	-0.05730752321924593	0.1424724192965337	-0.147530990448797	-0.1475309904488018	0.04444394758486227	0.003013030743946198	-0.03253115154392018	0.0394403545564672	0.02940742046755642	0.05607827117644612	-0.005931340546938532	-0.07804956092200756	0.00165516604295615	-0.05869914056176803	0.01499950870676929	-30.95596136484222	26.39958209388628	0.6658129955382807	3.892042465508039	-461.413918199391	-26.74870469985698	-25.28188752501159	-0.02159052161844202	-0.08330114452633185	7.632891687841506e-05	0.06551648125399197	0.008089212209805354	0.009876665815466781	0.07815038648587758	-0.1190507914895299	-0.1190507914891118	-0.04234884621860884	0.002708948656738272	-0.170877925266973	-0.06298567645480525	-6.533556143316431e-10	3.098729600069375e-09	-3.051596805642383e-09	7.801007052818963e-10	-2.267257705047283e-09	3.498654348152544e-09	4.183801273057935e-10
